<svg xmlns="http://www.w3.org/2000/svg" xmlns:xlink="http://www.w3.org/1999/xlink" version="1.1" id="Capa_1" x="0px" y="0px" viewBox="0 0 24 24" style="enable-background:new 0 0 24 24;" xml:space="preserve" width="300" height="300" xmlns:svgjs="http://svgjs.dev/svgjs"><g width="100%" height="100%" transform="matrix(1,0,0,1,0,0)"><g>
	<path d="M5.081,0h1.078v1.069h0.994V0h1.078v3.234H7.153V2.156H6.169v1.078H5.081L5.081,0z M9.656,1.078H8.705V0h2.986v1.078   h-0.956v2.156H9.656V1.078z M12.164,0h1.13l0.694,1.139L14.681,0h1.13v3.234h-1.078V1.631l-0.755,1.162l-0.755-1.162v1.603h-1.059   V0z M16.345,0h1.078v2.166h1.528v1.069h-2.606V0z" fill="#9c9c9c" fill-opacity="1" data-original-color="#000000ff" stroke="none" stroke-opacity="1"/>
	<path d="M3.497,4.716l1.547,17.362L11.986,24l6.97-1.931l1.547-17.353H3.497z M6.656,8.264h5.334v2.128h-3l0.197,2.18h2.803v2.123   H7.237L6.656,8.264z M12,14.7h2.616l-0.248,2.766L12,18.101V14.7z M17.625,20.953L12,22.523v-2.198l-4.369-1.219l-0.3-3.342h2.138   l0.15,1.702l2.377,0.636l-0.005,0.001v2.212L12,20.313l4.35-1.207l0.586-6.534H12v-2.18h5.128l0.197-2.128H12V6.141h6.952   L17.625,20.953z" fill="#9c9c9c" fill-opacity="1" data-original-color="#000000ff" stroke="none" stroke-opacity="1"/>
	<polygon points="12,12.572 16.936,12.572 16.35,19.106 12,20.313 12,18.101 14.367,17.466 14.616,14.7 12,14.7  " fill="#9c9c9c" fill-opacity="1" data-original-color="#000000ff" stroke="none" stroke-opacity="1"/>
	<polygon points="17.325,8.264 17.128,10.392 12,10.392 12,8.264  " fill="#9c9c9c" fill-opacity="1" data-original-color="#000000ff" stroke="none" stroke-opacity="1"/>
	<path d="M11.991,8.264v2.128H12V8.264H11.991z M11.991,12.572v2.123H12v-2.123H11.991z M11.995,18.102l-0.005,0.001v2.212   L12,20.313v-2.21L11.995,18.102z" fill="#9c9c9c" fill-opacity="1" data-original-color="#000000ff" stroke="none" stroke-opacity="1"/>
	<path d="M11.991,8.264v2.128h5.137l0.197-2.128H11.991z M11.991,12.572V14.7h2.625l-0.248,2.766L12,18.101l-0.005,0.001   l-0.005,0.001v2.212L12,20.313l4.35-1.207l0.586-6.534H11.991z" fill="#9c9c9c" fill-opacity="1" data-original-color="#000000ff" stroke="none" stroke-opacity="1"/>
</g></g></svg>